MILES DAVIS AROUND MIDNIGHT
Studio: Discovery Records 
DVD Release Date: 08/20/2008
Original Release: 1967
Black and White
Format: avi/xvid

This Miles Davis-headlined performance film combines footage from two separate concerts with Davis on trumpet, Herbie Hancock on piano, Wayne Shorter on tenor sax, Tony Williams on drums and Ron Carter on bass. One was mounted and filmed at Stathalle, Karlsruhe, Germany, in November of \'67, and the other at the Konserthuset in Stockholm, Sweden in October of \'67. ~ Nathan Southern, Rovi All Movie Guide

Playlist
1. Agitation [7:26]
2. Footprints [9:05]
3. Around Midnight [8:30]
4. Gingerbread Boy [8:12]
5. I Fall in Love Too Easily [11:33]


General
Complete name                    : F:\\MUSIC UP\\Miles Davis Around
Format                           : AVI
Duration                         : 44mn 52s
Overall bit rate                 : 1 095 Kbps

Video
ID                               : 0
Format                           : MPEG-4 Visual
Format profile                   : Simple@L3
Codec ID                         : XVID
Duration                         : 44mn 52s
Bit rate                         : 635 Kbps
Width x Height            : 576  x 432 pixels
Display aspect ratio             : 4:3
Frame rate                       : 29.970 fps
Bit depth                        : 8 bits
Scan type                        : Progressive
Compression mode                 : Lossy
Bits/(Pixel*Frame)               : 0.085
Stream size                      : 204 MiB (58%)
Writing library                  : XviD 1.0.3 (UTC 2004-12-20)

Audio
ID                               : 1
Format                           : AC-3
Mode extension                   : CM (complete main)
Codec ID                         : 2000
Duration                         : 44mn 52s
Bit rate mode                    : Constant
Bit rate                         : 448 Kbps
Channel(s)                       : 2 channels
Channel positions                : Front: L R
Sampling rate                    : 48.0 KHz
Bit depth                        : 16 bits
Compression mode                 : Lossy
Stream size                      : 144 MiB (41%)
